<svg width="380" height="380" xmlns="http://www.w3.org/2000/svg" xmlns:xlink="http://www.w3.org/1999/xlink" overflow="hidden"><g transform="translate(-1322 -998)"><path d="M1323 1188C1323 1083.62 1407.62 999 1512 999L1512 999C1616.38 999 1701 1083.62 1701 1188L1701 1188C1701 1292.38 1616.38 1377 1512 1377L1512 1377C1407.62 1377 1323 1292.38 1323 1188Z" fill-rule="evenodd"/><rect x="1530" y="1228" width="106" height="72" fill="#C00000"/><path d="M1546.49 1179 1546.49 1200.49 1528.71 1211.82C1511.82 1223.57 1498.65 1235.92 1489.21 1248.88 1480.88 1260.39 1476.72 1272.01 1476.72 1283.73 1476.72 1293.54 1480.24 1302.18 1487.29 1309.64 1492.62 1315.4 1500.09 1318.27 1509.7 1318.27 1520.37 1318.27 1532.75 1312.3 1546.83 1300.36L1546.83 1252.39 1636.16 1252.39 1636.16 1294.93C1636.16 1308.57 1636.58 1314.71 1637.76 1320.67 1638.94 1326.63 1640.56 1329.87 1643.24 1330.69 1645.93 1331.52 1651.58 1333.46 1657.95 1328.88 1664.33 1324.29 1675.73 1311.08 1681.49 1303.19 1684.69 1305.75 1686.8 1306.48 1690 1309.04 1679.33 1324.82 1657.62 1350.79 1643.36 1361.29 1629.1 1371.78 1618.97 1372 1604.46 1372 1587.39 1372 1574.05 1368 1564.44 1360.01 1554.84 1352.01 1548.97 1339.91 1546.83 1323.71 1510.34 1355.9 1477.57 1372 1448.55 1372 1431.47 1372 1417.28 1366.4 1405.97 1355.21 1394.66 1344.02 1389 1330 1389 1313.16 1389 1290.34 1398.82 1269.82 1418.45 1251.59 1435.63 1235.64 1470.55 1215.08 1523.19 1189.91Z" fill="#C00000" fill-rule="evenodd"/><path d="M1618.94 1228 1618.94 1285.23C1618.94 1302.46 1619.74 1313.57 1621.34 1318.57 1622.94 1323.57 1625.77 1327.61 1629.82 1330.69 1633.88 1333.77 1637.61 1335.32 1641.02 1335.32 1654.9 1335.32 1668.02 1324.79 1680.4 1303.74L1690 1310.75C1672.71 1351.58 1644.65 1372 1605.81 1372 1586.82 1372 1570.76 1366.74 1557.64 1356.21 1544.51 1345.68 1536.14 1333.93 1532.51 1320.96 1531.44 1317.35 1530.64 1310.65 1530.11 1300.87L1530 1298.42Z" fill="#C00000" fill-rule="evenodd"/><path d="M82.1043 0 83.466 6.38068C88.7219 27.1942 97.3568 44.771 109.371 59.1113 124.107 76.7443 141.833 85.5612 162.55 85.5612 175.365 85.5612 187.005 82.0025 197.47 74.8857 207.935 67.7683 219.148 54.9688 231.108 36.4858L242 43.4961C225.768 76.426 207.828 99.7425 188.179 113.445 168.53 127.148 145.785 134 119.943 134 75.5189 134 41.8808 117.004 19.0285 83.0117 12.1406 72.7346 6.54423 61.5313 2.23936 49.4018L0 42.2125Z" fill="#C00000" fill-rule="evenodd" transform="matrix(1 0 0 -1 1398 1203)"/></g></svg>